<svg xmlns="http://www.w3.org/2000/svg" width="512" height="512"><path fill="#1964cb" d="m124.27-.26 3.56-.01h9.68l10.48-.02q10.24-.02 20.48-.01h19.07l4.84-.01q22.64-.02 45.27 0l41.33-.03q21.26-.03 42.52-.02l23.84-.02q10.15-.02 20.3 0h10.33C389.63-.43 402.7-.42 416 3l2.7.69a92 92 0 0 1 6.11 1.87l2.23.76a130.4 130.4 0 0 1 73.4 66.18c7.72 16.58 11.88 33.43 11.82 51.77l.01 3.56v9.68l.02 10.48q.02 10.24.01 20.48v19.07l.01 4.84v45.27l.03 41.33q.03 21.26.02 42.52l.02 23.84q.02 10.15 0 20.3v10.33c.04 13.66.03 26.74-3.38 40.03l-.69 2.7a92 92 0 0 1-1.87 6.11l-.76 2.23a130.4 130.4 0 0 1-66.18 73.4c-16.58 7.72-33.43 11.89-51.77 11.82l-3.56.01h-9.68l-10.48.02q-10.24.02-20.49.01h-19.06l-4.84.01q-22.64.02-45.27 0-20.67 0-41.33.03-21.26.03-42.52.02-11.93 0-23.84.02-10.15.02-20.3 0h-10.33c-13.66.04-26.74.03-40.03-3.38l-2.7-.69a92 92 0 0 1-6.11-1.87l-2.23-.76a130.4 130.4 0 0 1-73.4-66.18C3.84 422.92-.32 406.07-.26 387.73l-.01-3.56v-9.68l-.02-10.48q-.02-10.24-.01-20.48v-19.07l-.01-4.84q-.02-22.64 0-45.27l-.03-41.32q-.03-21.27-.02-42.53l-.02-23.84q-.02-10.15 0-20.3v-10.33C-.42 122.37-.41 109.3 3 96l.69-2.7a92 92 0 0 1 1.87-6.11l.76-2.23a130.4 130.4 0 0 1 66.18-73.4C89.08 3.84 105.93-.32 124.27-.26"/><path fill="#fefefe" d="M334.13 191.2c4.52 3.3 8.06 6.37 9.87 11.8a68 68 0 0 1 .14 4.26l.02 2.63v2.87l.02 3.04.02 9.96.02 6.93.02 14.53.06 18.6.02 14.31q0 3.43.03 6.86v9.6l.03 2.85c-.04 6.53-.89 12.23-4.92 17.62-4.27 3.58-7.8 5.38-13.46 4.94-5.8-1.06-9.18-3.69-12.87-8.18-2-3.23-2.26-6.42-2.27-10.16l-.02-2.6v-2.84l-.02-3-.02-9.86-.02-6.85-.02-14.38-.06-18.4-.02-14.15q0-3.4-.03-6.78v-9.5l-.03-2.81c.04-6.48.81-12.35 5.06-17.55l1.76-1.38 1.74-1.43c4.42-2.74 10.34-3.53 14.94-.93M190 191c4.64 2.45 8.95 5.69 10.6 10.89.42 2.2.53 4.2.54 6.45l.02 2.6v2.84l.02 3 .02 9.86.02 6.85.02 14.38.06 18.4.02 14.15q0 3.4.03 6.78v9.5l.03 2.81c-.04 6.5-.9 12.19-4.92 17.55-4.27 3.58-7.8 5.38-13.46 4.94-5.85-1.07-9.2-3.71-12.87-8.28-1.95-2.96-2.26-5.53-2.27-8.98l-.02-2.63v-2.87l-.02-3.04-.02-9.96-.02-6.93-.02-14.53-.06-18.6-.02-14.31q0-3.43-.03-6.85v-9.61l-.03-2.85c.04-6.5.77-12.44 5.1-17.62l1.78-1.38 1.78-1.43c4.44-2.91 8.78-2.22 13.72-1.13m70-1c5.38 2.3 9.57 5.55 12 11 .58 3.52.56 7 .53 10.56l.03 3.19v10.4l.03 7.25q.01 7.59-.01 15.18l.04 19.44.01 14.97.02 7.16-.02 10.03.04 2.97c-.1 6.47-1.43 10.88-5.67 15.85-3.85 3.37-6.93 4.3-12.06 4-5.78-.88-9.26-3.04-13.07-7.48-2.55-4.8-2.44-8.73-2.4-14.08l-.03-3.18v-10.4l-.03-7.26q-.01-7.59.01-15.18l-.04-19.44-.01-14.97-.02-7.16.02-10.03-.04-2.97c.1-6.45 1.4-10.92 5.67-15.85 4.34-3.74 9.36-5.24 15-4"/><path fill="#fdfefe" d="m166.25 123.44 3.12-.12c6.34-.02 10.11.89 15 5 3.52 3.63 5.24 6.34 5.69 11.53a17.5 17.5 0 0 1-4.68 11.95c-4.36 3.93-7.7 5.28-13.57 5.38-15.63.34-15.63.34-28.75 8.2-4.71 5.17-7.1 10.7-7.27 17.67l-.09 2.3-.13 4.74c-.25 6.26-1.25 11.82-5.11 16.97-4.27 3.58-7.8 5.38-13.46 4.94-5.8-1.06-9.18-3.69-12.87-8.18-5.13-8.25-2.56-24.52-.97-33.63 1.59-6.01 4.17-11.58 6.84-17.19h2l.56-2c5.95-12.42 19.56-20.1 31.89-24.97 7.12-2.24 14.39-2.43 21.8-2.6M123 300c5.5 3 10 6.98 12 13q.14 2.02.18 4.06c.27 15.45.27 15.45 7.26 28.88L145 348l2.38 2.19c6.32 4.36 13.46 4.16 20.86 4.29 6.2.22 11.76 1.27 16.82 5.06 3.58 4.27 5.38 7.8 4.94 13.46-1.07 5.85-3.71 9.2-8.28 12.87-7.9 5.2-24.66 2.53-33.56.97-6-1.6-11.56-4.17-17.16-6.84v-2l-2-.56c-10.65-5.1-18.78-16.63-23-27.44l-1.12-2.87c-2.52-7.42-3.26-14.2-3.32-22l-.03-2.67c.09-6.49.88-12.36 5.19-17.52l1.78-1.38 1.78-1.43c3.87-2.55 8.24-2.98 12.72-2.13m275 0c4.8 2.63 9.93 6.45 11.57 11.89 3.58 17.57-1.3 36.17-10.57 51.11-6.5 9.26-16.44 16.88-27 21l-2.87 1.12c-7.42 2.52-14.2 3.26-22 3.32l-2.67.03c-6.5-.09-12.16-1-17.52-5.01-3.58-4.27-5.38-7.8-4.94-13.46 1.07-5.85 3.71-9.2 8.28-12.87 2.89-1.9 5.43-2.25 8.78-2.3 15.45-.28 15.45-.28 28.88-7.27L370 345l2.19-2.37c4.36-6.33 4.16-13.47 4.29-20.87.22-6.2 1.16-11.93 5.24-16.82l1.78-1.38 1.78-1.43c3.87-2.55 8.24-2.98 12.72-2.13m-20.62-169.31c14.85 7.7 24.68 20.29 30.59 35.86 2.04 6.69 2.33 13.26 2.4 20.2l.05 2.69c-.05 6.57-.9 12.2-4.96 17.62-4.27 3.58-7.8 5.38-13.46 4.94-5.85-1.07-9.2-3.71-12.87-8.28-1.95-2.97-2.25-5.58-2.3-9.04-.19-15.34-.19-15.34-7.27-28.56L367 164l-2.37-2.19c-6.33-4.37-13.47-4.16-20.87-4.29-6.2-.22-11.76-1.27-16.82-5.06-3.58-4.27-5.38-7.8-4.94-13.46 1.07-5.85 3.71-9.2 8.28-12.87 11.81-7.76 35.7-1 47.1 4.56"/></svg>